<?xml version="1.0" standalone="no"?>
<!DOCTYPE svg PUBLIC "-//W3C//DTD SVG 20010904//EN"
 "http://www.w3.org/TR/2001/REC-SVG-20010904/DTD/svg10.dtd">
<svg version="1.0" xmlns="http://www.w3.org/2000/svg"
 width="598.000000pt" height="417.000000pt" viewBox="0 0 598.000000 417.000000"
 preserveAspectRatio="xMidYMid meet">
<metadata>
Created by potrace 1.16, written by Peter Selinger 2001-2019
</metadata>
<g transform="translate(0.000000,417.000000) scale(0.100000,-0.100000)"
fill="#000000" stroke="none">
<path fill="rgb(108,189,68)" d="M2220 3887 c-58 -13 -97 -36 -141 -84 -28 -29 -589 -997 -616 -1060
-10 -25 -14 -60 -11 -108 l3 -70 300 -520 c246 -427 300 -515 303 -490 1 17 9
95 17 175 14 146 20 206 75 760 43 433 46 460 70 531 34 100 77 168 164 255
87 86 137 119 250 160 94 35 257 44 361 20 329 -78 552 -401 506 -732 -31
-220 -163 -405 -360 -503 -91 -46 -155 -62 -268 -69 l-107 -7 -168 -360 c-91
-198 -168 -363 -168 -367 0 -5 200 -8 445 -8 l446 0 -15 28 c-13 25 -101 234
-218 516 -49 120 -51 135 -10 136 27 0 159 68 218 113 l62 45 15 -41 c9 -23
66 -189 128 -370 95 -277 114 -325 124 -310 7 10 106 180 220 378 114 198 242
418 283 490 41 71 82 145 90 164 19 48 17 143 -6 194 -10 23 -146 263 -301
532 -299 520 -333 568 -419 597 -53 17 -1193 22 -1272 5z"/>
<path fill="rgb(108,189,68)" d="M2745 3026 c-218 -101 -158 -431 82 -453 102 -9 200 50 240 146 22
53 20 148 -5 196 -60 117 -200 166 -317 111z"/>
<path d="M150 620 l0 -340 65 0 65 0 0 140 0 140 28 0 c23 -1 42 -21 131 -140
l103 -140 84 0 c46 0 84 2 84 5 0 3 -45 63 -100 134 -55 71 -100 132 -100 135
0 3 15 6 33 6 27 0 44 11 95 63 l62 63 0 75 0 75 -63 62 -63 62 -212 0 -212 0
0 -340z m403 192 c35 -37 34 -59 -5 -99 l-32 -33 -118 0 -118 0 0 80 0 80 123
0 c122 0 124 0 150 -28z"/>
<path d="M827 922 l-37 -38 0 -265 0 -265 38 -37 38 -37 194 0 194 0 43 42 43
42 0 256 0 256 -43 42 -43 42 -195 0 -195 0 -37 -38z m371 -299 l-3 -198 -132
-3 -133 -3 0 201 0 200 135 0 135 0 -2 -197z"/>
<path d="M1440 900 l0 -60 35 0 35 0 0 -220 0 -220 -35 0 -35 0 0 -60 0 -60
206 0 206 0 64 62 64 61 0 78 c0 76 0 77 -36 109 l-37 32 37 37 c35 36 36 39
36 113 l0 76 -64 56 -63 56 -207 0 -206 0 0 -60z m392 -87 c36 -35 35 -59 -4
-100 -31 -32 -35 -33 -110 -33 l-78 0 0 80 0 80 82 0 c75 0 84 -2 110 -27z m0
-280 c17 -16 28 -37 28 -53 0 -16 -11 -37 -28 -53 -26 -25 -35 -27 -110 -27
l-82 0 0 80 0 80 82 0 c75 0 84 -2 110 -27z"/>
<path d="M2097 922 l-37 -38 0 -261 0 -261 39 -41 39 -41 193 0 193 0 43 42
43 42 0 256 0 256 -43 42 -43 42 -195 0 -195 0 -37 -38z m371 -299 l-3 -198
-132 -3 -133 -3 0 201 0 200 135 0 135 0 -2 -197z"/>
<path d="M2690 900 l0 -60 95 0 95 0 2 -277 3 -278 80 0 80 0 3 278 2 277 95
0 95 0 0 60 0 60 -275 0 -275 0 0 -60z"/>
<path d="M3480 620 l0 -340 70 0 70 0 0 140 0 140 175 0 175 0 0 60 0 60 -175
0 -175 0 0 80 0 80 178 0 178 0 22 60 21 60 -269 0 -270 0 0 -340z"/>
<path d="M4185 943 c-48 -123 -235 -643 -235 -654 0 -5 33 -9 73 -9 l72 0 73
199 c39 110 72 204 72 210 0 6 5 11 10 11 6 0 10 -1 10 -3 0 -3 133 -371 145
-399 6 -15 20 -18 82 -18 42 0 73 4 71 9 -1 5 -57 158 -123 340 l-120 331 -61
0 c-50 0 -63 -3 -69 -17z"/>
<path d="M4610 620 l0 -340 65 0 65 0 0 140 0 140 28 0 c24 0 41 -19 132 -140
l104 -140 88 0 88 0 -106 138 -106 137 33 3 c26 3 49 18 97 65 l62 61 0 76 0
76 -63 62 -63 62 -212 0 -212 0 0 -340z m403 192 c15 -15 27 -39 27 -52 0 -13
-12 -37 -27 -52 -26 -28 -28 -28 -150 -28 l-123 0 0 80 0 80 123 0 c122 0 124
0 150 -28z"/>
<path d="M5250 620 l0 -340 60 0 60 0 0 175 c0 96 4 175 8 175 5 0 41 -38 81
-85 l73 -85 71 87 72 87 3 -177 2 -178 63 3 62 3 0 73 c0 39 -2 191 -3 337
l-2 265 -47 0 -48 0 -85 -145 c-47 -79 -87 -145 -91 -145 -3 0 -43 65 -90 145
l-84 145 -52 0 -53 0 0 -340z"/>
</g>
</svg>
