<?xml version="1.0" standalone="no"?>
<!DOCTYPE svg PUBLIC "-//W3C//DTD SVG 20010904//EN"
 "http://www.w3.org/TR/2001/REC-SVG-20010904/DTD/svg10.dtd">
<svg version="1.0" xmlns="http://www.w3.org/2000/svg"
 width="256.000000pt" height="256.000000pt" viewBox="0 0 256.000000 256.000000"
 preserveAspectRatio="xMidYMid meet">
<metadata>
Created by potrace 1.16, written by Peter Selinger 2001-2019
</metadata>
<g transform="translate(0.000000,256.000000) scale(0.100000,-0.100000)"
fill="current" stroke="current">
<path d="M1511 2520 c-138 -109 -145 -235 -20 -343 l49 -42 0 -137 c0 -76 -3
-138 -6 -138 -3 0 -19 8 -34 17 -28 16 -28 18 -23 82 14 168 -70 252 -237 238
-106 -9 -108 -11 -117 -117 -13 -162 67 -247 226 -239 49 3 63 -1 105 -29 27
-17 58 -34 68 -38 15 -4 18 -16 18 -62 0 -54 -3 -60 -61 -134 l-60 -78 -55 0
c-45 0 -59 -4 -79 -24 l-24 -24 0 -392 0 -392 24 -24 24 -24 271 0 271 0 24
24 24 24 0 392 0 392 -24 24 c-19 19 -34 24 -78 24 l-54 0 -61 79 c-59 76 -62
83 -62 134 0 48 3 55 23 61 12 3 45 20 72 38 42 27 58 32 98 29 164 -10 251
84 233 253 -8 81 -24 95 -112 103 -171 14 -254 -67 -242 -238 l5 -67 -38 -22
-39 -21 0 143 0 143 49 42 c125 108 118 234 -20 343 -28 22 -59 40 -69 40 -10
0 -41 -18 -69 -40z m309 -1160 l0 -60 -240 0 -240 0 0 60 0 60 240 0 240 0 0
-60z m0 -200 l0 -60 -240 0 -240 0 0 60 0 60 240 0 240 0 0 -60z m0 -200 l0
-60 -240 0 -240 0 0 60 0 60 240 0 240 0 0 -60z m0 -200 l0 -60 -240 0 -240 0
0 60 0 60 240 0 240 0 0 -60z"/>
<path d="M12 1268 c-14 -14 -17 -904 -4 -926 6 -8 46 -13 133 -15 l124 -2 383
-153 c260 -104 404 -157 450 -164 185 -29 625 33 1115 157 263 66 284 73 307
102 66 84 42 206 -49 253 -40 20 -53 20 -617 18 -537 -3 -578 -4 -588 -20 -8
-13 -8 -23 0 -35 10 -17 53 -18 587 -23 526 -5 578 -7 596 -22 27 -23 36 -62
21 -97 -10 -26 -22 -32 -123 -60 -241 -66 -561 -136 -787 -172 -157 -25 -397
-36 -466 -21 -27 6 -222 79 -432 163 l-382 151 0 399 0 399 126 0 125 0 258
-184 c141 -101 263 -191 270 -200 22 -26 26 -108 7 -144 -25 -48 -93 -77 -145
-62 -16 4 -89 47 -164 94 -74 47 -144 86 -155 86 -26 0 -44 -29 -31 -52 9 -17
252 -173 302 -195 43 -19 122 -16 165 6 134 69 163 244 56 343 -16 14 -144
107 -283 207 l-255 181 -266 0 c-194 0 -269 -3 -278 -12z"/>
<path d="M2154 1200 c-71 -28 -128 -81 -161 -148 -23 -47 -28 -70 -28 -132 1
-122 56 -215 161 -266 151 -74 328 -15 401 134 23 47 28 70 28 132 0 85 -21
142 -74 203 -74 83 -222 119 -327 77z m126 -153 c0 -7 14 -20 31 -30 17 -9 29
-23 26 -30 -5 -13 -9 -13 -54 4 -26 11 -34 10 -48 -1 -16 -13 -15 -15 5 -32
12 -10 28 -18 35 -18 27 0 65 -41 65 -70 0 -30 -22 -60 -45 -60 -7 0 -15 -9
-18 -20 -6 -23 -27 -27 -27 -6 0 8 -16 23 -35 35 -19 11 -35 27 -35 36 0 19
19 19 44 0 25 -19 60 -19 76 0 16 19 0 40 -38 50 -48 12 -72 33 -72 65 0 16 7
35 16 42 9 7 26 23 37 35 22 22 37 22 37 0z"/>
</g>
</svg>
