<?xml version="1.0" standalone="no"?>
<!DOCTYPE svg PUBLIC "-//W3C//DTD SVG 20010904//EN"
 "http://www.w3.org/TR/2001/REC-SVG-20010904/DTD/svg10.dtd">
<svg version="1.0" xmlns="http://www.w3.org/2000/svg"
 width="378.000000pt" height="378.000000pt" viewBox="0 0 378.000000 378.000000"
 preserveAspectRatio="xMidYMid meet">
<metadata>
Created by potrace 1.16, written by Peter Selinger 2001-2019
</metadata>
<g transform="translate(0.000000,378.000000) scale(0.100000,-0.100000)"
fill="#000000" stroke="none">
<path d="M1670 3619 c-570 -75 -1063 -401 -1342 -889 -54 -94 -116 -230 -135
-295 -8 -27 -21 -63 -28 -80 -12 -28 -24 -83 -60 -265 -17 -87 -21 -431 -5
-489 5 -20 17 -74 25 -121 21 -110 94 -328 143 -428 179 -362 499 -677 852
-840 441 -203 905 -225 1363 -66 552 193 990 669 1136 1236 196 762 -115 1548
-779 1969 -201 128 -389 200 -660 255 -96 20 -402 28 -510 13z m190 -124 l0
-65 -45 0 c-38 0 -45 -3 -45 -20 0 -19 7 -20 115 -20 108 0 115 1 115 20 0 17
-7 20 -45 20 l-45 0 0 67 0 66 93 -6 c81 -6 255 -32 263 -39 3 -4 -23 -118
-28 -123 -2 -2 -21 0 -43 5 -21 5 -43 7 -47 4 -16 -10 -7 -34 15 -38 12 -3 62
-15 111 -27 59 -14 91 -18 98 -11 16 16 1 31 -37 38 -20 3 -37 10 -40 14 -9
15 22 115 37 118 26 5 296 -97 326 -123 4 -4 -36 -85 -50 -102 -8 -10 -19 -8
-49 7 -36 19 -39 19 -48 3 -8 -15 5 -25 92 -70 86 -46 103 -51 115 -39 12 12
8 17 -27 37 -23 12 -41 25 -41 28 0 3 14 30 30 59 l31 52 47 -27 c64 -36 95
-57 179 -121 l73 -55 -41 -48 c-42 -50 -47 -51 -86 -16 -21 19 -53 18 -53 -2
0 -5 12 -19 28 -31 15 -12 53 -46 86 -77 45 -43 60 -52 67 -42 13 20 12 23
-16 49 -14 13 -25 28 -25 34 0 6 19 31 42 55 l41 44 74 -79 c98 -104 156 -181
150 -197 -2 -7 -24 -26 -47 -42 l-42 -29 -32 38 c-29 33 -34 36 -45 22 -11
-14 -9 -22 15 -53 16 -21 46 -64 67 -97 35 -53 40 -57 54 -43 14 14 13 18 -7
47 -12 17 -20 37 -17 44 3 7 26 25 52 41 38 22 49 25 57 14 55 -83 164 -296
156 -305 -6 -6 -100 -44 -109 -44 -5 0 -18 18 -29 40 -21 40 -37 50 -45 28 -8
-20 71 -213 86 -213 15 0 18 36 6 71 -7 19 -1 24 48 44 32 13 60 19 64 14 24
-28 95 -330 80 -340 -5 -3 -33 -9 -62 -14 -59 -9 -67 -3 -67 48 0 28 -3 32
-26 32 -18 0 -25 -4 -21 -14 3 -8 11 -59 18 -115 10 -87 15 -101 31 -101 15 0
18 8 18 45 0 48 -1 48 82 59 27 3 38 0 42 -11 7 -18 8 -316 1 -335 -4 -9 -18
-13 -43 -10 -80 7 -82 8 -82 57 0 37 -3 45 -18 45 -15 0 -20 -17 -33 -114 -13
-107 -13 -115 3 -119 23 -6 28 1 28 37 0 52 9 57 74 46 32 -5 60 -11 62 -13
11 -10 -67 -321 -85 -340 -6 -6 -107 26 -119 37 -1 2 4 21 12 44 8 22 12 43 9
46 -12 12 -34 6 -40 -11 -3 -10 -21 -58 -40 -107 -28 -71 -32 -90 -22 -97 22
-14 26 -11 43 31 9 22 20 40 25 40 9 0 103 -38 109 -45 11 -10 -150 -315 -166
-315 -8 0 -102 61 -102 67 0 2 10 22 23 44 19 34 20 41 7 49 -11 7 -19 4 -30
-12 -8 -12 -39 -56 -68 -97 -46 -64 -51 -76 -39 -88 13 -13 18 -10 42 21 15
20 32 36 37 36 11 0 97 -62 98 -71 0 -9 -153 -190 -197 -231 l-39 -38 -44 45
-44 45 34 35 c28 29 31 37 20 50 -11 13 -18 10 -59 -28 -25 -23 -65 -58 -88
-76 -25 -20 -39 -39 -36 -47 7 -20 20 -17 57 11 l33 25 43 -47 43 -46 -39 -35
c-50 -44 -246 -173 -256 -170 -5 2 -22 27 -38 55 l-30 52 40 23 c43 25 44 26
31 46 -6 11 -30 2 -109 -40 -56 -29 -102 -58 -102 -65 0 -21 19 -24 49 -8 41
21 46 20 69 -19 42 -71 41 -73 -40 -110 -83 -39 -219 -86 -247 -86 -14 0 -22
12 -30 44 -17 68 -15 74 29 87 28 9 40 18 40 31 0 23 5 23 -122 -9 -89 -22
-108 -30 -108 -45 0 -17 6 -18 49 -12 l49 6 12 -57 c6 -31 9 -59 6 -62 -13
-13 -141 -34 -244 -40 l-113 -6 3 64 3 64 45 5 c31 3 45 10 45 20 0 12 -21 16
-117 18 -113 3 -118 2 -118 -18 0 -17 6 -20 45 -20 l45 0 0 -67 0 -66 -112 7
c-101 5 -232 26 -244 38 -2 3 1 31 8 63 l11 57 48 -5 c36 -5 49 -2 53 9 7 18
8 17 -118 49 -78 19 -102 22 -108 12 -13 -21 -9 -24 37 -36 25 -6 45 -14 45
-17 0 -3 -7 -30 -16 -60 -11 -40 -20 -54 -34 -54 -43 0 -320 109 -320 126 0
13 51 104 59 104 5 0 25 -7 44 -15 46 -19 47 -19 47 3 0 12 -30 32 -95 65
-104 53 -109 55 -113 34 -2 -8 13 -24 33 -36 l36 -21 -26 -49 c-13 -27 -29
-52 -34 -55 -16 -10 -179 94 -264 167 l-37 32 41 48 41 48 35 -27 c31 -23 63
-27 63 -7 0 11 -166 153 -179 153 -19 0 -12 -26 14 -50 14 -13 25 -28 25 -34
0 -6 -19 -31 -41 -56 l-42 -45 -88 94 c-103 109 -144 165 -136 185 3 8 25 28
48 43 l42 27 31 -38 c28 -32 34 -35 45 -23 10 13 6 23 -21 59 -18 24 -47 64
-63 90 -17 27 -35 48 -42 48 -23 0 -24 -20 -2 -49 28 -38 21 -53 -37 -87 l-46
-27 -19 24 c-20 26 -149 276 -149 289 0 9 93 50 113 50 8 0 17 -10 20 -22 10
-38 34 -65 47 -52 8 8 3 31 -18 85 -17 41 -34 88 -39 104 -5 17 -18 32 -28 33
-15 4 -17 -1 -10 -35 4 -21 8 -44 9 -51 1 -15 -96 -53 -112 -43 -15 9 -71 210
-78 280 -7 67 -12 63 78 75 39 5 38 6 52 -56 5 -20 13 -28 27 -28 16 0 19 4
15 16 -5 13 -25 173 -26 207 0 4 -9 7 -21 7 -18 0 -20 -5 -17 -47 l3 -48 -55
-7 c-30 -4 -61 -5 -67 -3 -10 3 -13 49 -13 180 l0 176 63 -3 62 -3 3 -47 c2
-38 7 -48 21 -48 16 0 20 14 30 100 6 55 12 105 13 112 2 7 -6 13 -17 13 -16
0 -21 -8 -23 -37 l-3 -38 -60 0 c-72 0 -77 7 -61 99 13 75 59 242 71 254 4 4
32 -1 62 -12 41 -14 54 -23 52 -37 -1 -11 -3 -32 -5 -49 -6 -60 24 -31 54 50
16 44 33 84 39 90 14 14 11 42 -7 49 -11 4 -20 -5 -32 -34 -9 -22 -23 -40 -29
-40 -15 0 -95 30 -106 40 -17 15 142 320 166 320 13 0 97 -60 97 -70 0 -5 -9
-24 -20 -43 -18 -30 -18 -36 -6 -46 13 -11 21 -3 52 46 21 32 51 75 67 95 28
35 29 58 4 58 -7 0 -21 -14 -32 -30 -11 -16 -25 -30 -31 -30 -17 0 -94 59 -94
72 0 17 68 103 153 193 l76 80 45 -50 45 -50 -30 -30 c-16 -17 -29 -36 -29
-42 0 -27 21 -20 71 26 30 26 70 62 89 79 27 24 32 33 23 43 -9 9 -20 6 -49
-16 l-37 -29 -39 43 c-21 24 -38 49 -38 56 0 22 282 217 294 204 9 -10 57
-111 54 -114 -2 -1 -18 -10 -35 -19 -32 -16 -49 -62 -20 -54 37 10 197 100
197 111 0 25 -12 26 -52 6 -22 -11 -41 -19 -43 -17 -16 18 -55 112 -48 118 24
21 286 119 320 120 13 0 48 -109 38 -119 -4 -3 -23 -11 -43 -16 -43 -12 -51
-41 -12 -39 29 1 199 40 206 47 2 2 2 11 -1 19 -5 12 -15 13 -48 7 -23 -4 -45
-4 -48 -1 -7 9 -30 114 -26 118 10 10 230 42 290 43 l67 1 0 -65z"/>
<path d="M1640 3499 c-74 -12 -81 -15 -73 -35 5 -13 15 -15 53 -10 l47 6 7
-46 c11 -82 12 -80 -56 -93 -35 -7 -102 -23 -150 -37 -48 -13 -89 -24 -92 -24
-6 0 -34 62 -42 96 -5 18 0 24 33 34 48 16 54 22 43 40 -8 13 -17 12 -67 -5
-89 -30 -163 -64 -163 -75 0 -19 25 -21 64 -5 21 9 39 15 40 13 7 -9 46 -112
46 -119 0 -5 -6 -9 -14 -9 -16 0 -258 -121 -267 -133 -6 -9 -69 82 -69 100 0
5 16 18 35 29 35 18 44 37 25 49 -12 7 -59 -20 -147 -84 -53 -39 -60 -48 -48
-60 12 -12 19 -10 51 14 l37 28 23 -28 c12 -16 28 -39 36 -53 12 -24 11 -27
-32 -61 -24 -20 -76 -66 -115 -103 -40 -38 -76 -68 -81 -68 -6 0 -27 18 -49
40 l-38 39 26 35 c30 39 34 56 12 56 -17 0 -27 -10 -105 -99 -65 -75 -65 -75
-46 -90 12 -10 20 -6 43 23 15 20 33 36 38 36 6 -1 30 -18 53 -40 l44 -39 -47
-57 c-25 -31 -64 -88 -87 -126 -22 -37 -44 -71 -49 -74 -11 -6 -109 43 -109
56 0 5 8 25 17 45 13 27 14 38 5 47 -15 15 -26 0 -83 -108 -25 -49 -40 -88
-36 -97 11 -29 27 -19 47 28 l19 45 56 -27 c30 -15 55 -32 55 -39 0 -6 -13
-40 -29 -75 -15 -35 -38 -95 -51 -134 -12 -38 -26 -74 -30 -79 -5 -4 -34 -1
-65 8 -56 17 -56 17 -49 49 12 53 10 62 -10 62 -16 0 -23 -16 -42 -100 -29
-123 -29 -135 -5 -135 15 0 20 10 25 45 8 51 15 53 93 34 43 -11 45 -13 38
-43 -17 -84 -25 -147 -25 -213 l0 -73 -71 0 -71 0 6 44 c6 36 4 45 -10 50 -27
10 -34 -12 -34 -109 0 -108 7 -137 29 -133 13 3 15 13 13 51 l-4 47 71 0 71 0
0 -62 c1 -64 15 -198 25 -229 7 -22 -19 -37 -79 -45 l-44 -6 -7 41 c-7 44 -21
59 -37 43 -8 -8 -3 -45 16 -127 15 -63 31 -115 34 -115 4 0 13 4 20 9 11 6 11
17 2 51 -6 23 -8 46 -3 50 10 10 105 30 114 24 4 -2 11 -19 15 -36 3 -18 26
-81 50 -141 24 -60 44 -112 44 -115 -1 -9 -86 -52 -103 -52 -7 0 -21 16 -30
35 -17 35 -47 48 -47 21 0 -16 72 -159 95 -190 9 -11 20 -16 30 -12 15 5 15
10 -4 42 -12 19 -21 41 -21 47 0 7 23 25 52 41 48 27 53 28 62 12 24 -39 128
-193 148 -219 l22 -27 -34 -35 c-40 -42 -73 -45 -96 -10 -17 25 -38 32 -49 16
-5 -9 73 -112 121 -158 26 -25 54 -30 54 -10 0 7 -14 26 -30 42 l-30 29 42 43
c23 24 47 43 53 43 6 0 35 -25 65 -55 30 -31 79 -75 108 -98 32 -26 52 -50 52
-62 0 -20 -45 -95 -57 -95 -3 0 -22 12 -40 26 -31 23 -37 25 -50 12 -13 -14
-7 -21 54 -65 96 -70 132 -88 147 -73 8 9 6 15 -9 26 -64 43 -61 38 -41 76 41
76 41 76 89 49 53 -30 223 -118 237 -123 9 -3 -21 -96 -37 -117 -1 -2 -20 4
-42 14 -22 9 -44 14 -50 11 -27 -17 -5 -36 82 -68 135 -52 134 -52 140 -28 4
17 -2 22 -39 32 -24 7 -44 17 -44 23 0 17 31 104 39 109 3 2 51 -8 106 -24 55
-15 124 -31 153 -35 57 -8 57 -7 45 -90 l-6 -47 -48 5 c-44 5 -59 -2 -59 -28
0 -4 113 -22 193 -30 53 -6 57 -5 57 14 0 17 -9 21 -51 27 -50 7 -51 7 -45 37
3 16 6 44 6 61 l0 31 165 0 c145 0 165 -2 165 -16 0 -9 3 -36 6 -61 l6 -45
-51 -7 c-51 -7 -57 -11 -43 -33 5 -8 29 -9 87 -2 139 15 156 19 153 37 -3 14
-14 16 -56 14 -51 -3 -52 -3 -52 25 0 15 -3 44 -6 63 l-6 36 75 12 c41 7 111
24 154 37 43 14 81 25 84 25 9 0 41 -111 34 -118 -4 -4 -21 -12 -38 -18 -21
-7 -33 -18 -35 -33 -3 -20 0 -22 20 -16 48 14 208 77 212 84 3 4 1 13 -4 21
-7 11 -15 11 -51 -3 -24 -9 -46 -14 -50 -9 -4 4 -17 30 -28 58 l-20 52 52 21
c29 12 91 44 139 71 49 28 91 50 95 50 5 0 23 -23 40 -50 l33 -50 -39 -26
c-38 -24 -47 -54 -17 -54 12 0 144 87 179 118 43 38 0 53 -48 16 -20 -15 -39
-23 -44 -18 -24 29 -61 84 -61 91 0 5 19 23 42 41 23 18 74 64 114 102 39 39
75 70 80 70 5 0 28 -19 51 -42 l43 -42 -31 -32 c-29 -30 -35 -64 -10 -64 5 0
37 33 72 73 100 114 94 104 79 123 -12 14 -17 11 -45 -22 -35 -42 -47 -40 -99
15 l-30 31 22 28 c17 21 149 214 159 230 3 7 103 -51 103 -60 0 -5 -9 -26 -20
-47 -18 -36 -18 -40 -2 -46 21 -8 32 7 89 119 35 70 42 91 31 97 -22 14 -26
11 -47 -37 l-21 -46 -47 27 c-27 15 -51 30 -55 34 -4 3 11 51 33 105 22 55 45
119 51 143 6 25 16 47 22 49 6 2 34 -2 61 -9 54 -15 56 -19 41 -84 -7 -29 -5
-33 12 -33 22 0 28 15 56 128 22 86 21 112 -3 112 -15 0 -20 -10 -25 -45 -8
-50 -10 -51 -86 -33 -44 10 -51 15 -46 32 8 35 24 147 31 224 l7 72 65 0 65 0
-4 -47 c-3 -42 -1 -48 17 -48 19 0 20 7 20 120 0 113 -1 120 -20 120 -18 0
-20 -6 -17 -47 l4 -48 -64 0 -64 0 -17 138 c-10 75 -20 146 -23 158 -5 18 1
22 46 32 75 18 77 17 84 -33 6 -36 11 -45 27 -45 25 0 25 22 -5 138 -25 100
-34 116 -54 103 -11 -7 -11 -17 -2 -51 6 -23 8 -46 3 -49 -15 -13 -106 -32
-113 -24 -4 4 -17 40 -30 78 -12 39 -36 99 -52 135 -16 35 -26 70 -24 77 3 7
28 24 56 38 l50 26 20 -46 c14 -33 23 -43 35 -38 12 4 15 13 10 32 -8 33 -94
191 -103 191 -4 0 -13 -4 -21 -9 -11 -7 -10 -15 8 -44 11 -19 21 -38 21 -43 0
-10 -99 -68 -105 -62 -2 1 -30 44 -62 93 -33 50 -75 108 -93 129 l-33 38 29
24 c73 61 72 61 106 20 24 -29 33 -34 44 -25 8 6 14 15 14 19 0 4 -37 46 -81
94 -64 68 -84 84 -95 75 -11 -9 -8 -18 18 -50 31 -38 31 -39 12 -60 -10 -12
-32 -30 -47 -41 l-29 -21 -61 60 c-34 33 -87 81 -119 106 l-56 45 34 51 c19
28 37 51 40 51 3 0 21 -12 39 -26 33 -25 55 -25 55 -1 0 11 -120 101 -168 126
-23 12 -42 8 -42 -9 0 -6 16 -20 35 -32 19 -13 35 -26 35 -30 0 -4 -14 -30
-31 -58 l-31 -50 -41 26 c-23 14 -88 48 -145 76 -59 29 -101 55 -99 62 3 6 13
31 23 56 9 25 18 46 19 48 1 1 19 -5 40 -13 38 -16 65 -14 65 4 0 14 -39 33
-142 69 -76 27 -87 29 -92 15 -8 -20 0 -28 47 -43 20 -6 37 -15 37 -18 0 -11
-35 -100 -42 -107 -3 -3 -44 6 -92 19 -48 14 -116 31 -151 37 -72 12 -73 14
-59 102 l7 37 47 -6 c38 -5 48 -3 53 10 4 9 1 19 -6 21 -26 9 -144 25 -189 25
-41 0 -48 -3 -48 -19 0 -17 8 -20 48 -23 l47 -3 -4 -55 c-1 -30 -5 -58 -8 -62
-2 -5 -75 -8 -162 -8 l-159 0 -5 58 c-2 31 -3 60 0 65 2 4 24 7 49 7 37 0 44
3 44 20 0 18 -6 20 -57 19 -32 -1 -83 -5 -113 -10z m462 -235 c260 -44 465
-132 663 -282 71 -54 205 -181 205 -195 0 -5 9 -16 20 -25 49 -41 166 -228
223 -358 83 -189 112 -343 112 -584 -1 -275 -72 -521 -218 -754 -27 -45 -55
-85 -62 -91 -6 -5 -23 -26 -37 -45 -14 -19 -35 -45 -47 -57 -12 -12 -21 -26
-21 -32 0 -16 -124 -121 -142 -121 -10 0 -18 -5 -18 -10 0 -18 -117 -97 -231
-155 -145 -74 -259 -114 -389 -136 -30 -5 -66 -12 -80 -15 -64 -13 -267 -16
-353 -4 -113 15 -252 46 -292 65 -16 7 -59 23 -95 36 -36 12 -77 30 -92 40
-14 11 -33 19 -42 19 -9 0 -24 8 -34 18 -10 10 -31 23 -48 30 -16 7 -43 24
-59 38 -17 14 -42 32 -57 40 -16 8 -28 21 -28 30 0 8 -12 20 -28 27 -112 48
-342 362 -412 562 -81 231 -104 364 -97 574 6 182 14 229 72 411 77 239 195
424 382 599 160 150 330 251 545 322 190 63 470 86 660 53z"/>
<path d="M1487 2956 c-52 -19 -107 -59 -137 -100 -24 -33 -25 -33 -105 -33
-68 1 -88 -3 -131 -25 -97 -51 -158 -148 -159 -254 l0 -61 -41 -11 c-50 -14
-137 -90 -166 -146 -31 -60 -35 -149 -10 -215 l21 -54 -45 -44 c-107 -103
-137 -256 -77 -384 31 -65 52 -93 112 -142 l33 -27 -11 -61 c-23 -134 37 -270
156 -348 57 -38 106 -52 181 -52 l58 -1 23 -44 c29 -53 103 -124 162 -155 33
-17 66 -24 130 -27 78 -4 92 -2 147 23 72 32 152 111 185 182 l22 48 3 864 c2
853 2 864 -18 906 -26 54 -90 120 -143 146 -52 27 -140 34 -190 15z m187 -119
c20 -16 45 -46 56 -67 19 -38 20 -60 20 -853 0 -884 0 -891 -56 -964 -86 -113
-272 -123 -371 -20 -37 39 -69 86 -61 91 2 1 21 11 43 21 64 32 169 143 189
201 27 78 30 142 12 214 -45 174 -172 280 -335 280 -68 0 -83 -9 -83 -46 0
-38 24 -52 88 -52 135 1 246 -127 246 -287 0 -128 -138 -250 -296 -262 -155
-13 -279 115 -263 271 3 30 13 68 22 85 22 44 11 68 -41 93 -99 46 -139 110
-139 223 0 70 4 86 28 128 18 30 48 60 85 85 64 42 76 71 44 105 -33 37 -42
64 -42 129 0 76 29 127 90 158 40 20 90 27 90 12 0 -5 14 -29 30 -54 41 -61
116 -111 220 -147 47 -15 101 -36 120 -46 48 -25 141 -122 165 -173 16 -33 27
-43 53 -48 47 -9 55 3 42 62 -14 62 -36 96 -104 163 l-55 54 44 28 c73 46 125
106 125 144 0 33 -13 45 -49 45 -9 0 -41 -25 -71 -55 -59 -59 -115 -85 -186
-85 -175 0 -333 207 -270 353 32 75 130 125 206 104 19 -5 50 -10 69 -11 31
-1 37 4 65 51 17 29 47 64 66 78 31 24 42 26 101 23 54 -3 73 -9 103 -31z"/>
<path d="M2137 2956 c-52 -19 -111 -61 -142 -102 -58 -76 -56 -29 -53 -967 l3
-862 28 -57 c38 -76 96 -134 173 -170 60 -28 71 -30 152 -26 65 3 98 10 131
27 59 31 133 102 162 155 l23 44 75 4 c93 4 156 32 221 98 83 82 118 190 98
301 l-11 62 29 21 c49 35 84 78 116 144 26 52 31 75 32 135 0 61 -5 83 -31
139 -17 37 -52 87 -76 112 l-45 45 19 51 c26 69 24 143 -5 205 -29 64 -115
142 -171 157 l-41 11 0 61 c2 107 -60 202 -167 258 -34 18 -58 22 -123 21 -80
0 -81 0 -103 33 -43 63 -139 113 -216 113 -22 0 -57 -6 -78 -13z m171 -111
c20 -14 51 -49 68 -78 28 -47 34 -52 65 -51 19 1 50 6 69 11 49 14 123 -6 162
-43 86 -81 75 -210 -28 -323 -69 -77 -119 -84 -235 -36 -61 26 -95 24 -104 -6
-11 -33 4 -57 49 -78 68 -31 130 -44 196 -39 76 5 127 39 190 125 51 69 68 75
130 43 61 -31 90 -82 90 -158 0 -65 -9 -92 -42 -129 -30 -32 -19 -63 32 -97
63 -42 75 -55 104 -110 51 -96 28 -215 -55 -290 -58 -52 -98 -62 -218 -53
-158 12 -236 58 -293 175 -29 59 -33 75 -33 152 0 95 -5 110 -40 110 -51 0
-72 -84 -49 -200 13 -72 35 -122 78 -180 l26 -34 -47 -18 c-136 -50 -270 -266
-183 -293 31 -10 57 3 64 31 10 40 51 98 92 132 71 59 170 77 255 47 24 -9 92
-18 150 -22 l107 -6 6 -30 c17 -84 -11 -185 -65 -237 -59 -56 -176 -86 -241
-61 -40 15 -64 -3 -83 -60 -24 -73 -91 -143 -157 -165 -126 -41 -263 15 -315
131 -17 37 -18 96 -21 882 -3 833 -2 843 18 883 11 22 39 54 62 70 56 41 140
43 196 5z"/>
</g>
</svg>
