<?xml version="1.0" standalone="no"?>
<!DOCTYPE svg PUBLIC "-//W3C//DTD SVG 20010904//EN"
 "http://www.w3.org/TR/2001/REC-SVG-20010904/DTD/svg10.dtd">
<svg version="1.0" xmlns="http://www.w3.org/2000/svg"
 width="588.000000pt" height="352.000000pt" viewBox="0 0 588.000000 352.000000"
 preserveAspectRatio="xMidYMid meet">
<metadata>
Created by potrace 1.16, written by Peter Selinger 2001-2019
</metadata>
<g transform="translate(0.000000,352.000000) scale(0.100000,-0.100000)"
fill="#000000" stroke="none">
<path d="M3821 3350 c-80 -44 -147 -83 -150 -86 -3 -3 1 -10 9 -15 11 -8 9 -9
-10 -4 -52 13 -342 118 -377 136 -53 27 -70 24 -148 -30 -69 -47 -71 -49 -185
-247 -64 -109 -158 -273 -209 -364 -52 -91 -116 -202 -143 -248 -28 -46 -47
-86 -43 -90 4 -4 10 -1 12 6 3 6 16 12 29 12 14 0 35 5 47 11 22 10 22 10 2
-6 -11 -9 -30 -18 -42 -22 -13 -3 -23 -9 -23 -14 0 -12 -101 -11 -210 1 -75 8
-547 73 -625 86 -16 2 -55 9 -85 14 -129 22 -375 61 -505 80 -77 12 -196 29
-265 40 -110 16 -126 16 -137 4 -19 -25 -50 58 -68 186 -19 129 -25 163 -32
157 -2 -3 7 -82 21 -176 27 -179 33 -302 16 -346 -9 -23 -7 -28 10 -32 31 -8
24 -30 -12 -38 -18 -4 -27 -9 -20 -12 6 -2 12 -11 12 -19 0 -11 -5 -12 -18 -5
-10 5 -24 6 -31 1 -11 -6 -9 -10 8 -19 11 -7 21 -15 21 -20 0 -14 -89 5 -110
24 -11 10 -20 15 -20 11 0 -17 57 -55 83 -56 15 0 27 -4 27 -9 0 -15 -23 -26
-50 -23 -22 2 -23 1 -7 -8 9 -6 17 -15 17 -21 0 -10 -62 -5 -80 6 -13 8 -13
-1 0 -25 8 -15 17 -18 40 -13 30 5 30 5 20 -21 -19 -51 -4 -64 28 -24 9 12 27
31 40 43 12 12 22 28 22 34 0 7 10 22 22 35 13 13 33 42 44 64 19 36 20 42 6
56 -13 13 -13 18 -2 31 9 10 13 36 11 70 -5 100 56 160 78 78 6 -21 17 -60 25
-86 13 -42 13 -48 0 -43 -15 6 -17 -14 -15 -149 0 -39 -13 -143 -29 -234 -17
-89 -30 -168 -30 -174 0 -7 -4 -7 -12 1 -7 7 -22 12 -34 12 -26 0 -38 -34 -23
-62 9 -17 6 -18 -45 -15 -59 4 -84 -9 -72 -38 4 -10 -1 -15 -14 -15 -24 0 -25
4 -3 51 11 22 25 39 35 39 9 0 20 4 23 10 4 6 -8 10 -29 10 -35 0 -35 0 -29
38 3 20 9 41 13 45 4 5 1 25 -6 45 -7 21 -9 41 -4 46 5 5 5 17 -1 28 -8 14 -6
18 8 19 12 1 9 3 -7 8 -18 5 -25 14 -25 31 0 20 -6 26 -30 28 -16 2 -36 8 -43
14 -8 7 -12 7 -12 0 0 -6 18 -16 40 -22 52 -14 44 -37 -13 -36 -35 1 -41 -2
-39 -16 2 -10 -2 -18 -8 -18 -21 0 10 -40 35 -46 29 -7 30 -18 6 -58 -27 -47
-41 -44 -41 8 0 49 -12 59 -30 26 -6 -11 -7 -20 -2 -20 13 0 22 -39 11 -46
-14 -8 -11 -24 5 -24 13 0 26 -20 26 -41 0 -6 -19 -9 -42 -7 -35 2 -42 6 -40
21 3 15 -3 18 -30 15 -25 -2 -33 -8 -33 -23 0 -15 7 -20 25 -20 14 -1 38 -4
53 -9 26 -8 28 -12 23 -41 -5 -22 -2 -35 6 -38 7 -3 1 -6 -14 -6 -16 -1 -28
-6 -28 -12 0 -8 12 -10 34 -6 31 5 46 -4 46 -29 0 -8 -42 -4 -61 6 -33 18 -20
-4 18 -28 l35 -23 19 22 c10 12 19 31 19 43 0 12 5 28 10 36 8 12 10 9 10 -13
0 -24 2 -26 19 -17 23 12 52 3 49 -16 -2 -7 6 -20 17 -28 28 -21 9 -51 -31
-50 -16 0 -33 -4 -37 -10 -6 -8 -10 -7 -14 2 -2 6 -11 12 -18 12 -7 0 -16 6
-18 13 -3 7 -6 5 -6 -5 -1 -11 -9 -18 -22 -18 -25 0 -16 -18 17 -30 40 -16 27
-30 -27 -30 -38 0 -55 5 -64 17 -12 15 -14 12 -26 -27 -7 -25 -13 -64 -13 -87
-1 -24 -4 -43 -9 -43 -13 0 -24 -41 -47 -166 -71 -386 -68 -356 -51 -396 16
-36 17 -37 76 -40 l60 -3 -5 -35 c-7 -48 -4 -161 5 -185 5 -16 5 -17 -4 -5
-12 16 -12 15 -16 -45 -1 -22 -6 -71 -10 -108 -4 -37 -5 -74 -2 -81 6 -14 22
-12 504 63 144 23 270 41 280 40 40 -2 -89 -47 -194 -69 l-113 -23 -10 -36
c-16 -55 -24 -167 -13 -174 15 -9 236 31 297 53 87 33 110 68 121 183 8 88 -1
81 125 96 41 5 169 23 284 41 115 17 212 27 217 23 4 -4 11 -25 14 -46 l7 -37
-73 -34 c-41 -19 -94 -40 -118 -47 -34 -10 -49 -22 -72 -58 -29 -47 -38 -91
-18 -91 27 0 157 44 200 67 43 23 51 34 92 122 25 53 50 108 56 124 12 31 36
35 79 13 60 -30 143 -29 340 5 35 6 66 9 69 5 13 -13 -34 -47 -140 -101 -62
-31 -118 -63 -126 -71 -33 -31 3 -22 106 26 112 53 163 92 184 141 6 16 17 29
25 29 7 0 20 10 28 21 14 21 15 20 45 -29 20 -31 43 -55 64 -63 40 -17 282
-17 345 0 35 10 42 16 42 37 l0 25 28 -18 c52 -36 83 -43 187 -43 115 0 126 5
160 70 14 26 21 31 38 25 12 -4 61 -10 110 -12 83 -5 89 -4 122 22 19 14 35
30 35 34 0 4 -31 11 -69 14 -40 3 -82 13 -98 23 -42 26 -73 56 -68 65 3 4 38
10 78 14 71 7 73 6 123 -28 44 -29 63 -35 132 -41 120 -10 155 11 55 32 -59
12 -114 44 -100 58 4 4 53 13 109 21 95 12 103 12 122 -5 29 -25 90 -16 94 14
2 18 12 23 50 27 38 4 51 1 78 -19 29 -23 31 -27 26 -76 l-5 -51 29 7 c40 10
43 15 64 95 30 113 33 114 84 31 l37 -60 -20 -26 c-50 -64 -11 -58 52 7 47 48
49 53 45 97 -3 26 -8 55 -12 64 -6 13 -3 15 14 11 23 -6 59 -71 60 -106 0 -10
-15 -31 -32 -48 -41 -37 -25 -37 33 0 63 41 89 68 96 102 7 37 39 39 105 5 59
-30 130 -40 214 -31 71 7 77 13 89 82 6 37 4 42 -14 45 -16 2 5 24 94 98 114
93 115 94 115 137 0 41 -1 43 -30 43 -25 0 -30 -4 -30 -25 0 -14 -4 -25 -9
-25 -9 0 -17 58 -27 208 l-7 102 41 0 c32 0 42 4 47 20 9 27 -1 40 -31 40 -14
0 -24 6 -24 14 0 8 -3 21 -6 29 -4 11 5 16 35 19 l40 3 51 -210 c28 -115 69
-289 92 -385 22 -96 42 -181 44 -187 5 -19 38 -16 65 6 20 16 22 22 12 44 -6
13 -39 145 -72 293 -33 148 -74 325 -91 393 -17 70 -27 127 -22 130 5 3 7 32
4 64 -4 57 -6 59 -53 91 -47 32 -51 32 -111 24 -61 -8 -63 -8 -84 19 -229 292
-239 299 -381 270 -102 -21 -134 -36 -163 -77 -17 -24 -18 -30 -6 -30 8 0 18
-4 21 -10 3 -6 -4 -10 -17 -10 -16 0 -27 9 -37 31 -8 18 -25 35 -42 41 -16 5
-29 11 -30 11 -1 5 -30 375 -46 586 -16 227 -19 244 -38 251 -11 4 -58 20
-105 35 -96 32 -109 40 -92 57 7 7 12 38 12 69 0 47 3 57 16 55 27 -2 26 20
-1 32 -20 9 -25 19 -25 50 0 25 -7 46 -20 60 -25 26 -23 26 -61 7 -27 -15 -30
-14 -35 2 -22 70 -43 68 -213 -27z m162 -524 c15 -4 27 -11 27 -16 0 -6 -72
-101 -160 -211 -88 -110 -160 -205 -160 -210 0 -5 6 -9 13 -9 6 0 4 -5 -6 -11
-23 -14 -125 -14 -159 0 -18 6 -30 20 -34 38 -19 88 -29 108 -53 105 -13 -1
-34 5 -47 13 -13 8 -30 15 -39 15 -12 0 -15 13 -15 58 -1 31 -5 134 -10 227
-4 94 -6 173 -4 176 2 3 142 -33 311 -81 169 -49 320 -91 336 -94z m-938 -32
c20 -8 45 -56 45 -88 0 -44 -39 -133 -67 -151 -91 -60 -129 130 -43 217 30 29
38 32 65 22z m-1830 -449 c138 -14 492 -52 789 -85 296 -33 540 -60 541 -60 2
0 5 -20 7 -45 2 -35 0 -45 -12 -45 -8 0 -107 9 -220 20 -113 11 -392 39 -620
61 -228 22 -481 46 -561 54 -80 8 -171 15 -203 16 l-57 2 2 59 2 60 41 -6 c23
-3 154 -17 291 -31z m60 -395 c-3 -5 -2 -10 4 -10 5 0 13 5 17 11 5 9 69 10
233 5 124 -3 236 -9 249 -12 13 -4 22 -2 22 5 0 15 57 14 62 -1 4 -11 149 -18
383 -18 34 0 72 -6 89 -15 15 -8 37 -15 47 -15 11 0 19 -4 19 -10 0 -5 7 -10
16 -10 10 0 14 -7 12 -22 -3 -22 -7 -23 -103 -23 -150 0 -278 8 -292 18 -7 5
-10 14 -6 20 4 6 -2 8 -15 5 -12 -3 -23 -1 -25 6 -2 6 -8 8 -12 4 -4 -4 -2
-15 6 -24 13 -16 2 -16 -151 -10 -91 4 -214 11 -275 17 -60 5 -143 9 -182 9
-59 0 -73 3 -73 16 0 8 -5 12 -11 9 -5 -4 -26 1 -46 10 l-37 18 35 12 c19 7
35 13 37 14 2 0 0 -3 -3 -9z m3800 -47 c22 -3 50 -6 63 -7 15 -1 22 -7 22 -21
0 -12 6 -27 13 -34 10 -11 5 -12 -28 -7 -22 3 -91 11 -152 17 l-113 12 0 29 0
30 78 -7 c42 -4 95 -9 117 -12z m-4410 -338 l60 0 2 -80 c1 -44 -1 -74 -4 -67
-2 6 -18 12 -35 12 -28 0 -30 2 -25 29 5 25 3 30 -20 36 -33 8 -41 -1 -45 -49
-2 -22 -9 -41 -16 -44 -11 -3 -13 14 -10 82 2 51 -1 88 -7 91 -5 3 1 2 15 -2
14 -4 52 -8 85 -8z m2303 -107 c4 -42 -14 -58 -62 -58 -23 0 -76 -62 -88 -102
-13 -44 -38 -50 -58 -14 -15 30 -5 85 13 67 6 -6 15 -11 19 -11 12 0 10 34 -4
48 -8 8 -8 15 2 27 13 15 15 15 22 -6 7 -17 11 -20 21 -10 9 9 9 16 0 30 -10
15 -9 22 5 34 26 23 63 36 97 34 27 -2 30 -6 33 -39z m437 31 c59 -15 71 -30
55 -70 -10 -24 -17 -29 -34 -24 -91 27 -124 16 -176 -60 -17 -25 -35 -45 -40
-45 -11 0 -14 33 -4 43 4 3 8 25 9 48 4 50 33 84 91 104 48 17 46 17 99 4z
m-2243 -26 c35 -37 65 -130 74 -226 7 -82 -1 -107 -37 -107 -23 0 -31 26 -24
84 7 57 -14 64 -35 11 -8 -19 -17 -35 -20 -35 -3 0 -6 32 -6 71 l-1 71 18 -33
17 -34 -3 30 c-1 17 -6 38 -10 48 -4 9 -2 23 4 31 13 15 5 26 -21 26 -21 0
-22 4 -7 32 10 18 9 20 -8 16 -10 -3 -24 1 -31 8 -9 10 -8 15 6 23 29 18 57
12 84 -16z m743 0 c60 -60 115 -223 115 -344 0 -71 -8 -83 -49 -72 -24 6 -38
40 -22 56 14 14 14 54 0 59 -18 6 -30 80 -17 111 9 23 8 31 -3 37 -8 5 -16 5
-20 -2 -12 -19 -19 8 -13 51 4 28 2 41 -6 41 -7 0 -14 -9 -17 -20 -3 -11 -10
-17 -15 -14 -6 4 -15 0 -20 -7 -8 -11 -9 -10 -4 3 3 10 0 20 -6 24 -6 4 -6 9
-1 13 6 3 13 18 17 34 5 20 3 27 -9 27 -8 0 -15 7 -15 15 0 26 54 18 85 -12z
m493 15 c23 -23 14 -70 -19 -104 -17 -18 -39 -56 -49 -86 -13 -40 -22 -54 -38
-56 -16 -3 -22 2 -22 16 0 11 -3 34 -6 52 -6 30 -5 32 15 25 18 -5 21 -2 21
19 0 14 -5 26 -10 26 -6 0 -3 14 6 32 14 27 18 29 26 15 5 -9 13 -17 18 -17
15 0 12 50 -2 50 -13 1 28 40 41 40 4 0 12 -5 19 -12z m1723 0 c38 -11 119
-71 119 -88 0 -4 -14 -13 -31 -19 -26 -9 -36 -7 -72 17 -33 22 -51 27 -98 25
-50 -1 -58 1 -67 22 -11 24 -5 36 28 48 26 9 81 7 121 -5z m329 -18 c54 -28
117 -104 135 -163 8 -27 12 -53 9 -58 -3 -5 -38 -8 -77 -7 -40 1 -56 3 -34 5
23 3 37 9 37 18 0 9 6 12 15 9 10 -4 15 0 15 15 0 22 -14 28 -25 10 -4 -5 -19
9 -34 33 -39 60 -63 79 -118 93 -48 12 -61 29 -49 62 8 20 70 11 126 -17z
m323 -57 c44 -45 77 -126 77 -189 0 -50 -12 -60 -53 -45 -37 14 -37 44 -1 35
20 -5 25 -3 22 7 -3 8 -12 13 -21 13 -11 -1 -19 13 -27 46 -12 51 -67 124
-100 135 -19 6 -29 53 -14 68 11 11 78 -30 117 -70z m-2212 -33 c40 -11 48
-25 74 -126 15 -61 21 -227 9 -258 -8 -21 -43 -20 -66 1 -21 19 -23 33 -4 33
8 0 16 7 20 15 6 18 -2 45 -15 45 -5 0 -9 9 -9 20 0 11 -7 20 -15 20 -8 0 -15
5 -15 10 0 6 7 10 16 10 9 0 14 6 12 12 -3 7 2 19 9 27 17 17 13 46 -7 46 -18
0 -36 38 -21 43 12 4 15 45 4 55 -3 4 -12 2 -18 -3 -9 -7 -17 -3 -29 15 -28
42 -11 53 55 35z m1425 -146 c12 -46 -4 -150 -30 -201 -29 -58 -68 -97 -120
-118 -42 -18 -50 -14 -60 27 -5 23 -1 30 36 55 47 32 84 88 93 144 4 26 11 36
23 35 9 0 18 6 20 15 2 13 -7 17 -49 18 -56 1 -83 11 -31 11 17 0 35 6 39 14
20 33 71 33 79 0z m-850 -61 l37 -18 -6 -75 c-9 -132 -51 -196 -91 -138 -20
28 -22 58 -4 40 19 -19 28 -14 28 13 0 14 -6 25 -14 25 -11 0 -11 9 -3 44 7
31 14 43 23 39 10 -3 14 3 14 20 0 22 -6 27 -35 33 -40 7 -46 21 -12 27 12 2
23 5 24 6 1 0 19 -7 39 -16z m1163 -2 c10 -6 12 -19 7 -46 -13 -65 -65 -134
-128 -166 -38 -19 -128 -26 -128 -10 0 5 7 8 16 7 25 -2 29 24 5 31 -33 9 -25
20 21 26 50 7 86 32 113 80 18 32 22 34 32 19 8 -13 14 -14 23 -5 14 13 5 33
-16 33 -14 0 -19 21 -7 33 9 10 45 8 62 -2z m-1460 -180 c31 -59 74 -91 126
-91 41 0 43 -1 53 -41 10 -38 9 -41 -15 -50 -51 -19 -109 -3 -160 43 -17 16
-20 27 -16 54 4 22 2 34 -6 34 -6 0 -11 -7 -11 -15 0 -23 -16 -18 -28 10 -16
34 -15 46 4 73 21 31 31 28 53 -17z m-1065 -33 c5 -32 4 -48 -3 -48 -6 0 -11
-5 -11 -11 0 -6 9 -8 20 -4 11 3 20 2 20 -3 0 -6 -5 -12 -12 -14 -7 -3 -8 -10
-4 -17 7 -11 10 -11 18 0 8 11 9 11 5 -1 -2 -8 0 -23 5 -32 12 -24 -17 -41
-127 -72 -106 -31 -195 -44 -195 -28 0 6 6 12 13 15 9 3 9 7 0 18 -6 8 -14 41
-18 74 -4 33 -12 70 -16 83 -8 20 -5 25 26 38 19 7 47 14 62 14 15 0 59 9 98
20 38 10 72 17 76 14 4 -2 10 -19 13 -39 4 -19 12 -37 18 -41 8 -5 9 0 4 17
-15 54 -19 84 -8 74 5 -5 13 -31 16 -57z m-534 -43 c12 -32 11 -177 -1 -169
-5 3 -9 -6 -9 -19 0 -13 -12 -48 -27 -78 -22 -42 -35 -56 -60 -63 -40 -11 -72
-1 -54 17 6 6 19 12 29 12 10 0 17 8 17 20 0 11 7 25 15 32 10 9 11 12 3 13
-13 0 -18 32 -7 43 4 4 8 21 9 38 2 17 8 35 14 39 7 3 9 14 6 22 -4 9 -2 19 3
22 5 3 7 26 4 51 -4 43 -4 45 22 45 19 0 29 -7 36 -25z m737 -37 c21 -44 21
-56 -1 -104 -30 -64 -65 -94 -114 -101 -49 -7 -92 18 -92 53 0 33 28 31 32 -3
3 -30 28 -45 28 -17 0 14 3 15 12 6 19 -19 24 -14 24 23 0 37 -10 46 -20 18
-5 -12 -10 -13 -17 -6 -13 13 -4 33 15 33 8 0 19 7 26 15 7 8 16 15 21 15 5 0
9 -7 9 -15 0 -8 7 -15 15 -15 18 0 18 7 4 48 -20 57 33 102 58 50z m1323 -117
c0 -4 11 -25 25 -45 l24 -36 -77 0 c-80 0 -143 20 -170 53 -12 14 -9 16 20 21
96 16 178 19 178 7z"/>
</g>
</svg>
